<?xml version="1.0" encoding="UTF-8"?>
<svg width="231px" height="72px" viewBox="0 0 231 72" version="1.1" xmlns="http://www.w3.org/2000/svg" xmlns:xlink="http://www.w3.org/1999/xlink">
    <!-- Generator: Sketch 47.1 (45422) - http://www.bohemiancoding.com/sketch -->
    <title>Group</title>
    <desc>Created with Sketch.</desc>
    <defs></defs>
    <g id="Zeipt-App" stroke="none" stroke-width="1" fill="none" fill-rule="evenodd">
        <g id="Artboard-2-Copy" transform="translate(-141.000000, -347.000000)">
            <g id="Group" transform="translate(141.000000, 347.000000)">
                <g id="ZEIPT-LOGO-Copy-2" transform="translate(81.000000, 0.000000)">
                    <g id="Zeipt-Font">
                        <polygon id="Rectangle-748" fill="#277098" points="35.840708 50.4424779 35.840708 55.7522124 0 55.7522124 0 50.4424779 29.2035398 5.30973451 0 5.30973451 0 0 35.840708 0 35.840708 5.30973451 6.63716814 50.4424779"></polygon>
                        <path d="M76.956144,34.5132743 C76.9793741,34.0740491 76.9911504,33.6314533 76.9911504,33.1858407 C76.9911504,20.7227778 67.7793101,10.619469 56.4159292,10.619469 C45.0525483,10.619469 35.840708,20.7227778 35.840708,33.1858407 C35.840708,45.6489036 45.0525483,55.7522124 56.4159292,55.7522124 C65.6732428,55.7522124 73.5026348,49.0469088 76.0868133,39.8230088 L70.5114612,39.8230088 C68.2109297,46.0591642 62.7662542,50.4424779 56.4159292,50.4424779 C47.9850337,50.4424779 41.1504425,42.7164182 41.1504425,33.1858407 C41.1504425,23.6552632 47.9850337,15.9292035 56.4159292,15.9292035 C64.8468247,15.9292035 71.6814159,23.6552632 71.6814159,33.1858407 C71.6814159,33.6324849 71.6664053,34.075166 71.6369233,34.5132743 L76.956144,34.5132743 Z" id="Oval-36" fill="#277098"></path>
                        <rect id="Rectangle-749" fill="#277098" x="37.1681416" y="29.2035398" width="37.1681416" height="5.30973451"></rect>
                        <rect id="Rectangle-751" fill="#277098" x="82.300885" y="10.619469" width="5.30973451" height="45.1327434"></rect>
                        <rect id="Rectangle-751" fill="#3CBF71" x="82.300885" y="0" width="5.30973451" height="5.30973451"></rect>
                        <path d="M139.380531,0 L144.690265,0 L144.690265,49.4348703 C144.690265,49.9913566 145.14297,50.4424779 145.688986,50.4424779 L150,50.4424779 L150,55.7522124 L144.690265,55.7522124 L144.690265,55.7522124 C141.75778,55.7522124 139.380531,53.3744445 139.380531,50.4443198 L139.380531,0 Z" id="Rectangle-751" fill="#277098"></path>
                        <rect id="Rectangle-751" fill="#277098" x="134.070796" y="10.619469" width="15.9292035" height="5.30973451"></rect>
                        <rect id="Rectangle-751" fill="#277098" x="92.920354" y="10.619469" width="5.30973451" height="61.0619469"></rect>
                        <path d="M113.495575,55.7522124 C102.132194,55.7522124 92.920354,45.6489036 92.920354,33.1858407 C92.920354,20.7227778 102.132194,10.619469 113.495575,10.619469 C124.858956,10.619469 134.070796,20.7227778 134.070796,33.1858407 C134.070796,45.6489036 124.858956,55.7522124 113.495575,55.7522124 Z M113.495575,50.4424779 C121.926471,50.4424779 128.761062,42.7164182 128.761062,33.1858407 C128.761062,23.6552632 121.926471,15.9292035 113.495575,15.9292035 C105.06468,15.9292035 98.2300885,23.6552632 98.2300885,33.1858407 C98.2300885,42.7164182 105.06468,50.4424779 113.495575,50.4424779 Z" id="Oval-36" fill="#277098"></path>
                    </g>
                </g>
                <g id="Z-LOGO" fill="#3CBF71">
                    <polygon id="Fill-26" points="0 55.5033186 31.4518805 0 69.6875 0 38.2356195 55.5033186"></polygon>
                    <polyline id="Fill-27" points="69.6875 55.5033186 43.7859513 55.5033186 69.6875 9.86725664"></polyline>
                    <polygon id="Fill-28" points="25.9015487 0 0 45.6360619 0 0"></polygon>
                </g>
            </g>
        </g>
    </g>
</svg>